<mxfile host="app.diagrams.net" modified="2024-02-19T09:57:38.249Z" agent="Mozilla/5.0 (Windows NT 10.0; Win64; x64) AppleWebKit/537.36 (KHTML, like Gecko) Chrome/121.0.0.0 Safari/537.36" etag="Hnz03qKk0P9Be4Q51Beg" version="23.1.2" type="github">
  <diagram name="Page-1" id="lOECso4uFMNUHnVZMWXs">
    <mxGraphModel dx="856" dy="693" grid="1" gridSize="10" guides="1" tooltips="1" connect="1" arrows="1" fold="1" page="1" pageScale="1" pageWidth="850" pageHeight="1100" math="0" shadow="0">
      <root>
        <mxCell id="0" />
        <mxCell id="1" parent="0" />
        <mxCell id="cgWcQHZ6oqcAm00dNn00-7" value="" style="rounded=0;whiteSpace=wrap;html=1;dashed=1;" vertex="1" parent="1">
          <mxGeometry x="170" y="472" width="420" height="170" as="geometry" />
        </mxCell>
        <mxCell id="cgWcQHZ6oqcAm00dNn00-1" value="IPGL-BU-SRVXXX.emea.ipg.corp&lt;br&gt;On premises data gateway&lt;br&gt;T2 Windows Server 2019" style="image;points=[];aspect=fixed;html=1;align=center;shadow=0;dashed=0;image=img/lib/allied_telesis/computer_and_terminals/Server_Desktop.svg;" vertex="1" parent="1">
          <mxGeometry x="470" y="530" width="42.599999999999994" height="54" as="geometry" />
        </mxCell>
        <mxCell id="cgWcQHZ6oqcAm00dNn00-2" value="Data source in Germany (CRM SQL)&lt;br&gt;IPGL-BU-SRV091.emea.ipg.corp" style="image;points=[];aspect=fixed;html=1;align=center;shadow=0;dashed=0;image=img/lib/allied_telesis/computer_and_terminals/Server_Desktop.svg;" vertex="1" parent="1">
          <mxGeometry x="250" y="530" width="42.599999999999994" height="54" as="geometry" />
        </mxCell>
        <mxCell id="cgWcQHZ6oqcAm00dNn00-5" value="ipgphotonics.com M365 tenant" style="html=1;verticalLabelPosition=bottom;align=center;labelBackgroundColor=#ffffff;verticalAlign=top;strokeWidth=2;strokeColor=#0080F0;shadow=0;dashed=0;shape=mxgraph.ios7.icons.cloud;" vertex="1" parent="1">
          <mxGeometry x="440.7" y="330" width="101.2" height="60" as="geometry" />
        </mxCell>
        <mxCell id="cgWcQHZ6oqcAm00dNn00-6" value="" style="sketch=0;aspect=fixed;pointerEvents=1;shadow=0;dashed=0;html=1;strokeColor=none;labelPosition=center;verticalLabelPosition=bottom;verticalAlign=top;align=center;fillColor=#00188D;shape=mxgraph.mscae.enterprise.firewall" vertex="1" parent="1">
          <mxGeometry x="466.3" y="450" width="50" height="44" as="geometry" />
        </mxCell>
        <mxCell id="cgWcQHZ6oqcAm00dNn00-8" value="" style="endArrow=classic;html=1;rounded=0;" edge="1" parent="1" source="cgWcQHZ6oqcAm00dNn00-1" target="cgWcQHZ6oqcAm00dNn00-5">
          <mxGeometry width="50" height="50" relative="1" as="geometry">
            <mxPoint x="440" y="490" as="sourcePoint" />
            <mxPoint x="490" y="440" as="targetPoint" />
          </mxGeometry>
        </mxCell>
        <mxCell id="cgWcQHZ6oqcAm00dNn00-9" value="" style="endArrow=classic;html=1;rounded=0;" edge="1" parent="1" source="cgWcQHZ6oqcAm00dNn00-1" target="cgWcQHZ6oqcAm00dNn00-2">
          <mxGeometry width="50" height="50" relative="1" as="geometry">
            <mxPoint x="440" y="490" as="sourcePoint" />
            <mxPoint x="490" y="440" as="targetPoint" />
          </mxGeometry>
        </mxCell>
        <mxCell id="cgWcQHZ6oqcAm00dNn00-10" value="" style="image;aspect=fixed;html=1;points=[];align=center;fontSize=12;image=img/lib/azure2/analytics/Power_BI_Embedded.svg;" vertex="1" parent="1">
          <mxGeometry x="480.05" y="360" width="22.5" height="30" as="geometry" />
        </mxCell>
        <mxCell id="cgWcQHZ6oqcAm00dNn00-11" value="DE-BU" style="text;html=1;align=center;verticalAlign=middle;resizable=0;points=[];autosize=1;strokeColor=none;fillColor=none;" vertex="1" parent="1">
          <mxGeometry x="190" y="472" width="60" height="30" as="geometry" />
        </mxCell>
        <mxCell id="cgWcQHZ6oqcAm00dNn00-12" value="port 1433" style="text;html=1;align=center;verticalAlign=middle;resizable=0;points=[];autosize=1;strokeColor=none;fillColor=none;" vertex="1" parent="1">
          <mxGeometry x="290" y="535" width="70" height="30" as="geometry" />
        </mxCell>
      </root>
    </mxGraphModel>
  </diagram>
</mxfile>
